<svg width="21" height="19" viewBox="0 0 21 19" fill="none" xmlns="http://www.w3.org/2000/svg">
<g id="&#240;&#159;&#166;&#134; icon &#34;phone&#34;">
<path id="Vector" d="M15.7925 18.6737C12.2872 18.6691 8.92674 17.2812 6.4481 14.8143C3.96947 12.3474 2.57498 9.00286 2.57043 5.51412C2.57043 4.47162 2.98654 3.47181 3.7272 2.73465C4.46787 1.99748 5.47242 1.58335 6.51988 1.58335C6.74169 1.58167 6.96312 1.6017 7.18098 1.64317C7.3916 1.67419 7.59865 1.7257 7.79916 1.79698C7.94018 1.84622 8.06584 1.93125 8.16372 2.04365C8.2616 2.15606 8.3283 2.29194 8.35723 2.43787L9.53348 7.56496C9.56519 7.70413 9.56137 7.84899 9.52237 7.98631C9.48338 8.12363 9.41046 8.24905 9.31025 8.35112C9.19864 8.47075 9.19005 8.47929 8.134 9.02619C8.97969 10.8727 10.4635 12.3555 12.3153 13.2048C12.8733 12.1452 12.8819 12.1366 13.0021 12.0255C13.1047 11.9258 13.2307 11.8532 13.3687 11.8144C13.5066 11.7756 13.6522 11.7718 13.792 11.8034L18.9435 12.974C19.0854 13.0068 19.2166 13.075 19.3247 13.1722C19.4329 13.2693 19.5144 13.3923 19.5616 13.5295C19.6341 13.7323 19.6887 13.941 19.7248 14.1533C19.7593 14.368 19.7766 14.5852 19.7763 14.8027C19.7605 15.8408 19.3327 16.8304 18.5863 17.5557C17.8399 18.2809 16.8356 18.6828 15.7925 18.6737Z" fill="#FB7535"/>
</g>
</svg>
