<svg width="20" height="19" viewBox="0 0 20 19" fill="none" xmlns="http://www.w3.org/2000/svg">
<g id="&#240;&#159;&#166;&#134; icon &#34;gift&#34;">
<path id="Vector" d="M1.51863 16.284C1.51863 17.0043 1.82867 17.6952 2.38056 18.2046C2.93244 18.714 3.68095 19.0001 4.46143 19.0001H8.69169C8.74047 19.0001 8.78725 18.9822 8.82175 18.9504C8.85624 18.9186 8.87562 18.8754 8.87562 18.8304V11.0214C8.87562 10.9764 8.85624 10.9332 8.82175 10.9014C8.78725 10.8696 8.74047 10.8517 8.69169 10.8517H1.88648C1.78892 10.8517 1.69536 10.8875 1.62637 10.9511C1.55739 11.0148 1.51863 11.1012 1.51863 11.1912V16.284Z" fill="#FB7535"/>
<path id="Vector_2" d="M8.87562 9.32371V4.74021H10.347V9.32371C10.347 9.36873 10.3664 9.41191 10.4009 9.44375C10.4354 9.47558 10.4822 9.49347 10.5309 9.49347H16.9683C17.2189 9.49346 17.4677 9.45399 17.704 9.37676C18.1339 9.23587 18.5061 8.97568 18.7696 8.63187C19.033 8.28806 19.1748 7.87746 19.1754 7.45636V6.77732C19.1754 6.23705 18.9429 5.7189 18.529 5.33687C18.1151 4.95483 17.5537 4.74021 16.9683 4.74021H15.1042C15.0882 4.73998 15.0725 4.73588 15.0588 4.72834C15.045 4.72079 15.0336 4.71005 15.0257 4.69719C15.0178 4.68433 15.0137 4.66978 15.0137 4.65499C15.0138 4.64021 15.0181 4.6257 15.0261 4.61289C15.4518 3.94951 15.59 3.16211 15.4131 2.40858C15.2362 1.65505 14.7572 0.9911 14.0722 0.54986C13.3872 0.108619 12.5467 -0.0772891 11.7194 0.0294114C10.8921 0.136112 10.1391 0.527533 9.61132 1.12519C9.08357 0.527533 8.33054 0.136112 7.50322 0.0294114C6.67591 -0.0772891 5.83547 0.108619 5.15044 0.54986C4.4654 0.9911 3.98641 1.65505 3.80951 2.40858C3.63261 3.16211 3.77087 3.94951 4.19658 4.61289C4.20459 4.6257 4.20884 4.64021 4.20891 4.65499C4.20897 4.66978 4.20485 4.68433 4.19696 4.69719C4.18906 4.71005 4.17766 4.72079 4.16388 4.72834C4.1501 4.73588 4.13443 4.73998 4.11841 4.74021H2.25434C1.66898 4.74021 1.1076 4.95483 0.693685 5.33687C0.279774 5.7189 0.0472412 6.23705 0.0472412 6.77732V7.45636C0.0478906 7.87746 0.189646 8.28806 0.453072 8.63187C0.716498 8.97568 1.0887 9.23587 1.51864 9.37676C1.7549 9.45399 2.0037 9.49346 2.25434 9.49347H8.6917C8.74048 9.49347 8.78726 9.47558 8.82175 9.44375C8.85625 9.41191 8.87562 9.36873 8.87562 9.32371ZM10.347 3.04262C10.347 2.70687 10.4549 2.37866 10.657 2.09949C10.8591 1.82032 11.1463 1.60274 11.4824 1.47425C11.8185 1.34576 12.1883 1.31214 12.5451 1.37765C12.9019 1.44315 13.2296 1.60483 13.4868 1.84224C13.744 2.07965 13.9192 2.38214 13.9902 2.71144C14.0611 3.04074 14.0247 3.38207 13.8855 3.69226C13.7463 4.00245 13.5106 4.26758 13.2081 4.45412C12.9056 4.64065 12.55 4.74021 12.1863 4.74021H10.347V3.04262ZM6.90487 1.34927C7.15685 1.3326 7.40984 1.36402 7.64808 1.44156C7.88632 1.51911 8.1047 1.64113 8.28961 1.8C8.47451 1.95888 8.62197 2.1512 8.72279 2.36499C8.82361 2.57878 8.87564 2.80945 8.87562 3.04262V4.74021H7.03638C6.56079 4.73908 6.10416 4.56797 5.76233 4.26277C5.4205 3.95758 5.22004 3.54204 5.20303 3.10336C5.18601 2.66468 5.35377 2.23697 5.67108 1.91C5.98839 1.58302 6.43059 1.38221 6.90487 1.3497V1.34927Z" fill="#FB7535"/>
<path id="Vector_3" d="M10.5309 19.0001H14.7612C15.5417 19.0001 16.2902 18.714 16.8421 18.2046C17.394 17.6952 17.704 17.0043 17.704 16.284V11.1912C17.704 11.1012 17.6653 11.0148 17.5963 10.9511C17.5273 10.8875 17.4337 10.8517 17.3362 10.8517H10.5309C10.4822 10.8517 10.4354 10.8696 10.4009 10.9014C10.3664 10.9332 10.347 10.9764 10.347 11.0214V18.8304C10.347 18.8754 10.3664 18.9186 10.4009 18.9504C10.4354 18.9822 10.4822 19.0001 10.5309 19.0001Z" fill="#FB7535"/>
</g>
</svg>
