<svg width="21" height="19" viewBox="0 0 21 19" fill="none" xmlns="http://www.w3.org/2000/svg">
<g id="&#240;&#159;&#166;&#134; icon &#34;game controller&#34;">
<path id="Vector" d="M19.5914 8.92553C18.7462 3.7504 17.4741 0.988242 15.587 0.23375C15.1904 0.0761852 14.7789 -0.00253233 14.3656 6.20956e-05C13.8192 6.20956e-05 13.3433 0.18032 12.84 0.371372C12.2334 0.601821 11.5444 0.863573 10.5397 0.863573C9.53502 0.863573 8.84557 0.602361 8.23781 0.371911C7.73408 0.18032 7.25863 6.20956e-05 6.71385 6.20956e-05C6.2864 -0.00194507 5.86082 0.0765217 5.44932 0.23321C3.57227 0.984465 2.30097 3.74554 1.44334 8.92229C0.521148 14.493 0.975069 18.0102 2.71623 18.8262C2.9549 18.9401 3.20602 18.9989 3.45908 19C4.65187 19 5.60834 17.6545 6.26192 16.553C7.00039 15.3063 7.86479 14.6738 10.5397 14.6738C12.9289 14.6738 13.9176 15.1126 14.7717 16.553C15.3085 17.4586 15.8158 18.0922 16.3219 18.4911C16.995 19.021 17.6677 19.1387 18.3209 18.8349C19.3499 18.3594 19.9397 17.1024 20.0744 15.098C20.1769 13.561 20.019 11.542 19.5914 8.92553ZM8.62677 8.63517H7.35149V10.3622C7.35149 10.5912 7.28431 10.8108 7.16473 10.9728C7.04515 11.1347 6.88296 11.2257 6.71385 11.2257C6.54473 11.2257 6.38255 11.1347 6.26297 10.9728C6.14339 10.8108 6.07621 10.5912 6.07621 10.3622V8.63517H4.80092C4.63181 8.63517 4.46962 8.54419 4.35004 8.38225C4.23046 8.22031 4.16328 8.00068 4.16328 7.77166C4.16328 7.54264 4.23046 7.32301 4.35004 7.16107C4.46962 6.99913 4.63181 6.90815 4.80092 6.90815H6.07621V5.18113C6.07621 4.95211 6.14339 4.73247 6.26297 4.57053C6.38255 4.40859 6.54473 4.31762 6.71385 4.31762C6.88296 4.31762 7.04515 4.40859 7.16473 4.57053C7.28431 4.73247 7.35149 4.95211 7.35149 5.18113V6.90815H8.62677C8.79589 6.90815 8.95807 6.99913 9.07765 7.16107C9.19724 7.32301 9.26442 7.54264 9.26442 7.77166C9.26442 8.00068 9.19724 8.22031 9.07765 8.38225C8.95807 8.54419 8.79589 8.63517 8.62677 8.63517ZM11.9744 8.85105C11.8168 8.85105 11.6627 8.78774 11.5316 8.66914C11.4005 8.55053 11.2983 8.38196 11.238 8.18472C11.1777 7.98749 11.1619 7.77046 11.1927 7.56108C11.2234 7.3517 11.2993 7.15937 11.4108 7.00842C11.5223 6.85746 11.6643 6.75466 11.8189 6.71301C11.9735 6.67136 12.1338 6.69274 12.2794 6.77444C12.4251 6.85613 12.5495 6.99448 12.6371 7.17198C12.7247 7.34949 12.7714 7.55818 12.7714 7.77166C12.7714 8.05793 12.6875 8.33248 12.538 8.5349C12.3885 8.73733 12.1858 8.85105 11.9744 8.85105ZM13.7279 11.2257C13.5702 11.2257 13.416 11.1623 13.2849 11.0436C13.1538 10.9249 13.0516 10.7561 12.9913 10.5588C12.9311 10.3614 12.9154 10.1442 12.9463 9.93474C12.9772 9.72529 13.0533 9.53296 13.165 9.38212C13.2767 9.23127 13.4189 9.12868 13.5736 9.08734C13.7284 9.046 13.8887 9.06776 14.0343 9.14987C14.1799 9.23198 14.3043 9.37075 14.3916 9.5486C14.4789 9.72646 14.5254 9.93542 14.525 10.149C14.5244 10.4348 14.4402 10.7087 14.2908 10.9105C14.1414 11.1124 13.939 11.2257 13.7279 11.2257ZM13.7279 6.47639C13.5703 6.47639 13.4162 6.41309 13.2851 6.29448C13.154 6.17588 13.0519 6.0073 12.9915 5.81007C12.9312 5.61284 12.9154 5.39581 12.9462 5.18643C12.9769 4.97705 13.0528 4.78472 13.1643 4.63376C13.2758 4.48281 13.4178 4.38001 13.5724 4.33836C13.727 4.29671 13.8873 4.31808 14.0329 4.39978C14.1786 4.48148 14.3031 4.61982 14.3906 4.79733C14.4782 4.97483 14.525 5.18352 14.525 5.39701C14.525 5.68328 14.441 5.95782 14.2915 6.16025C14.142 6.36267 13.9393 6.47639 13.7279 6.47639ZM15.4814 8.85105C15.3238 8.85105 15.1697 8.78774 15.0386 8.66914C14.9075 8.55053 14.8054 8.38196 14.745 8.18472C14.6847 7.98749 14.6689 7.77046 14.6997 7.56108C14.7304 7.3517 14.8064 7.15937 14.9178 7.00842C15.0293 6.85746 15.1713 6.75466 15.3259 6.71301C15.4805 6.67136 15.6408 6.69274 15.7864 6.77444C15.9321 6.85613 16.0566 6.99448 16.1442 7.17198C16.2317 7.34949 16.2785 7.55818 16.2785 7.77166C16.2785 8.05793 16.1945 8.33248 16.045 8.5349C15.8956 8.73733 15.6928 8.85105 15.4814 8.85105Z" fill="#FB7535"/>
</g>
</svg>
