<svg width="20" height="19" viewBox="0 0 20 19" fill="none" xmlns="http://www.w3.org/2000/svg">
<g id="&#240;&#159;&#166;&#134; icon &#34;Book Reader&#34;">
<path id="Vector" d="M13.1976 3.56249C13.1976 1.59496 11.5919 0 9.61114 0C7.63036 0 6.02468 1.59496 6.02468 3.56249C6.02468 5.53002 7.63036 7.12498 9.61114 7.12498C11.5919 7.12498 13.1976 5.53002 13.1976 3.56249ZM8.77392 8.94705C6.55741 7.59924 2.96722 7.22889 1.16054 7.12684C0.553455 7.0927 0.0472412 7.55211 0.0472412 8.13213V16.4001C0.0472412 16.9319 0.480232 17.3753 1.03688 17.4039C2.66797 17.4889 5.96789 17.8002 8.24865 18.9413C8.59871 19.1165 9.01377 18.8779 9.01377 18.5008V9.37232C9.01339 9.19902 8.92709 9.04019 8.77392 8.94705ZM18.0617 7.12684C16.2554 7.22852 12.6649 7.59924 10.4487 8.94705C10.2956 9.04019 10.2093 9.20533 10.2093 9.37863V18.4997C10.2093 18.8779 10.6254 19.1168 10.9766 18.9413C13.257 17.8013 16.555 17.49 18.1858 17.405C18.7424 17.376 19.1754 16.9326 19.1754 16.4008V8.13213C19.175 7.55211 18.6688 7.0927 18.0617 7.12684Z" fill="#FB7535"/>
</g>
</svg>
