<svg width="21" height="19" viewBox="0 0 21 19" fill="none" xmlns="http://www.w3.org/2000/svg">
<g id="&#240;&#159;&#166;&#134; icon &#34;Graduation Cap&#34;">
<path id="Vector" d="M19.5767 4.41364L11.2398 0.1733C10.7855 -0.0577665 10.2953 -0.0577665 9.84133 0.1733L1.50411 4.41364C0.80055 4.77137 0.80055 6.31165 1.50411 6.66938L2.95756 7.40859C2.63865 8.06122 2.44259 8.85733 2.42316 9.72915C2.13534 10.0023 1.9327 10.4951 1.9327 11.0834C1.9327 11.6168 2.10247 12.0655 2.34695 12.3525L1.58391 18.0366C1.51756 18.5309 1.74471 19 2.05046 19H3.72747C4.03352 19 4.26067 18.5309 4.19432 18.0366L3.43128 12.3525C3.67576 12.0655 3.84553 11.6168 3.84553 11.0834C3.84553 10.5109 3.65215 10.032 3.37748 9.75389C3.4002 9.01072 3.62974 8.35364 3.99586 7.93703L9.84103 10.9102C10.1118 11.0478 10.6313 11.2195 11.2395 10.9102L19.5767 6.66987C20.2806 6.31165 20.2806 4.77186 19.5767 4.41364ZM11.5204 12.4238C10.6677 12.8572 9.94116 12.6177 9.56009 12.4238L5.22575 10.2195L4.80194 15.8334C4.80194 17.5824 7.3711 19 10.5404 19C13.7097 19 16.2789 17.5824 16.2789 15.8334L15.8551 10.219L11.5204 12.4238Z" fill="#FB7535"/>
</g>
</svg>
