<svg width="20" height="20" viewBox="0 0 20 20" fill="none" xmlns="http://www.w3.org/2000/svg">
<g id="&#240;&#159;&#166;&#134; icon &#34;social linkedin&#34;">
<path id="Vector" d="M18.5186 0H1.47639C0.661389 0 0 0.645833 0 1.44111V18.5569C0 19.3533 0.661389 20 1.47639 20H18.5186C19.3342 20 20 19.3533 20 18.5569V1.44111C20 0.645833 19.3342 0 18.5186 0ZM5.93167 17.0428H2.96389V7.49861H5.93167V17.0428ZM4.44778 6.19361C3.49694 6.19361 2.72833 5.42306 2.72833 4.47306C2.72833 3.52444 3.49694 2.75389 4.44778 2.75389C5.39639 2.75389 6.16694 3.52444 6.16694 4.47306C6.16694 5.42306 5.39639 6.19361 4.44778 6.19361ZM17.0417 17.0428H14.0786V12.4017C14.0786 11.2944 14.0569 9.87083 12.5367 9.87083C10.9928 9.87083 10.7575 11.0767 10.7575 12.3214V17.0431H7.79222V7.49861H10.6381V8.80194H10.6786C11.0747 8.05194 12.0425 7.26056 13.4858 7.26056C16.4875 7.26056 17.0419 9.23667 17.0419 11.8075L17.0417 17.0428Z" fill="white"/>
</g>
</svg>
