<svg width="20" height="19" viewBox="0 0 20 19" fill="none" xmlns="http://www.w3.org/2000/svg">
<g id="&#240;&#159;&#166;&#134; icon &#34;Alternate Map Marker&#34;">
<path id="Vector" d="M8.62841 18.6167C1.3907 10.8 0.0472412 9.99775 0.0472412 7.125C0.0472412 3.18996 4.32921 0 9.61132 0C14.8934 0 19.1754 3.18996 19.1754 7.125C19.1754 9.99775 17.8319 10.8 10.5942 18.6167C10.1193 19.1278 9.10333 19.1278 8.62841 18.6167ZM9.61132 10.0937C11.8122 10.0937 13.5964 8.7646 13.5964 7.125C13.5964 5.4854 11.8122 4.15625 9.61132 4.15625C7.41044 4.15625 5.62629 5.4854 5.62629 7.125C5.62629 8.7646 7.41044 10.0937 9.61132 10.0937Z" fill="#FB7535"/>
</g>
</svg>
