<svg width="20" height="20" viewBox="0 0 20 20" fill="none" xmlns="http://www.w3.org/2000/svg">
<g id="&#240;&#159;&#166;&#134; icon &#34;facebook icon&#34;">
<path id="Vector" d="M20 0.561941C20 0.414647 19.9042 0.273385 19.7337 0.169233C19.5632 0.0650801 19.332 0.00656764 19.0909 0.00656764H14.5455C12.2566 -0.0630863 10.0156 0.423532 8.31222 1.3601C6.60881 2.29667 5.58143 3.60705 5.45455 5.00493V8.00394H0.909091C0.667985 8.00394 0.436754 8.06245 0.266267 8.16661C0.0957791 8.27076 0 8.41202 0 8.55931V11.4473C0 11.5945 0.0957791 11.7358 0.266267 11.84C0.436754 11.9441 0.667985 12.0026 0.909091 12.0026H5.45455V19.4446C5.45455 19.5919 5.55032 19.7332 5.72081 19.8373C5.8913 19.9415 6.12253 20 6.36364 20H11.8182C12.0593 20 12.2905 19.9415 12.461 19.8373C12.6315 19.7332 12.7273 19.5919 12.7273 19.4446V12.0026H17.4909C17.6931 12.0044 17.8904 11.965 18.0518 11.8905C18.2131 11.8161 18.3293 11.7109 18.3818 11.5917L19.6909 8.70371C19.7271 8.62165 19.7319 8.53561 19.7051 8.45223C19.6783 8.36884 19.6205 8.29032 19.5362 8.22272C19.4519 8.15513 19.3433 8.10025 19.2188 8.06232C19.0944 8.02439 18.9573 8.00442 18.8182 8.00394H12.7273V5.00493C12.7725 4.72999 12.9838 4.47522 13.32 4.29038C13.6562 4.10553 14.0932 4.00387 14.5455 4.00525H19.0909C19.332 4.00525 19.5632 3.94674 19.7337 3.84259C19.9042 3.73844 20 3.59718 20 3.44988V0.561941Z" fill="white"/>
</g>
</svg>
