<svg width="21" height="19" viewBox="0 0 21 19" fill="none" xmlns="http://www.w3.org/2000/svg">
<g id="&#240;&#159;&#166;&#134; icon &#34;calendar&#34;">
<path id="Vector" d="M17.2708 3.21539H16.3262V2.33847C16.3262 2.1059 16.2267 1.88285 16.0495 1.71839C15.8724 1.55394 15.6321 1.46155 15.3816 1.46155C15.1311 1.46155 14.8908 1.55394 14.7137 1.71839C14.5365 1.88285 14.437 2.1059 14.437 2.33847V3.21539H8.7694V2.33847C8.7694 2.1059 8.66988 1.88285 8.49273 1.71839C8.31558 1.55394 8.07532 1.46155 7.82479 1.46155C7.57427 1.46155 7.33401 1.55394 7.15686 1.71839C6.97971 1.88285 6.88019 2.1059 6.88019 2.33847V3.21539H5.93559C5.18402 3.21539 4.46323 3.49256 3.93179 3.98593C3.40035 4.47929 3.10179 5.14844 3.10179 5.84616V16.3692C3.10179 17.067 3.40035 17.7361 3.93179 18.2295C4.46323 18.7228 5.18402 19 5.93559 19H17.2708C18.0224 19 18.7432 18.7228 19.2746 18.2295C19.806 17.7361 20.1046 17.067 20.1046 16.3692V5.84616C20.1046 5.14844 19.806 4.47929 19.2746 3.98593C18.7432 3.49256 18.0224 3.21539 17.2708 3.21539ZM7.82479 14.6154C7.63797 14.6154 7.45534 14.564 7.3 14.4676C7.14466 14.3712 7.02359 14.2343 6.9521 14.0741C6.8806 13.9138 6.8619 13.7375 6.89834 13.5674C6.93479 13.3973 7.02476 13.241 7.15686 13.1184C7.28897 12.9958 7.45728 12.9122 7.64051 12.8784C7.82375 12.8446 8.01367 12.8619 8.18628 12.9283C8.35888 12.9947 8.50641 13.1071 8.6102 13.2513C8.714 13.3955 8.7694 13.565 8.7694 13.7385C8.7694 13.971 8.66988 14.1941 8.49273 14.3586C8.31558 14.523 8.07532 14.6154 7.82479 14.6154ZM15.3816 14.6154H11.6032C11.3527 14.6154 11.1124 14.523 10.9353 14.3586C10.7581 14.1941 10.6586 13.971 10.6586 13.7385C10.6586 13.5059 10.7581 13.2828 10.9353 13.1184C11.1124 12.9539 11.3527 12.8615 11.6032 12.8615H15.3816C15.6321 12.8615 15.8724 12.9539 16.0495 13.1184C16.2267 13.2828 16.3262 13.5059 16.3262 13.7385C16.3262 13.971 16.2267 14.1941 16.0495 14.3586C15.8724 14.523 15.6321 14.6154 15.3816 14.6154ZM18.2154 9.35386H4.99099V5.84616C4.99099 5.61359 5.09051 5.39054 5.26766 5.22609C5.44481 5.06163 5.68507 4.96924 5.93559 4.96924H6.88019V5.84616C6.88019 6.07874 6.97971 6.30179 7.15686 6.46624C7.33401 6.6307 7.57427 6.72309 7.82479 6.72309C8.07532 6.72309 8.31558 6.6307 8.49273 6.46624C8.66988 6.30179 8.7694 6.07874 8.7694 5.84616V4.96924H14.437V5.84616C14.437 6.07874 14.5365 6.30179 14.7137 6.46624C14.8908 6.6307 15.1311 6.72309 15.3816 6.72309C15.6321 6.72309 15.8724 6.6307 16.0495 6.46624C16.2267 6.30179 16.3262 6.07874 16.3262 5.84616V4.96924H17.2708C17.5213 4.96924 17.7616 5.06163 17.9387 5.22609C18.1159 5.39054 18.2154 5.61359 18.2154 5.84616V9.35386Z" fill="#FB7535"/>
</g>
</svg>
